# xmcd
#
# Track frame offsets:
#	150
#	12352
#	33705
#	45231
#	55834
#	69452
#	83823
#	96950
#	112441
#	129245
#	154548
#	168974
#	187671
#	210402
#	232333
#
# Disc length: 3339
#
# Revision: 1
# Processed by: cddbd v1.5.1PL0 Copyright (c) Steve Scherf et al.
# Submitted via: WhereIsIt 3.23
# Normalized: r0:DSETVAR1
#
DISCID=c10d090f
DTITLE=Various Artist - Blues Story - Vol. 26 - Folk - Blues
DYEAR=1900
DGENRE=
TTITLE0=John Lee Hooker - I'm In The Mood
TTITLE1=Sonny Terry - Sonny' Whoopin' The Droop
TTITLE2=Sonny Boy Wiliamson - Peach Tree
TTITLE3=Mississipi John Hurt - Worried Blues
TTITLE4=Blind Lemon Jefferson - Match Box Blues
TTITLE5=Skip James - Devil Got My Woman
TTITLE6=Muddy Waters - Burr Clover Farm Blues
TTITLE7=Ted Hawkins - Ladder Of Success
TTITLE8=Bob Brozman - Honeymoon Blues
TTITLE9=Bo Ramsey - Back No More
TTITLE10=Corey Harris - High Fever Blues
TTITLE11=Greg Brown - Some Day When We're Both Alone
TTITLE12=Furry Lewis - Going To Brownsville
TTITLE13=David Lindley - Attar
TTITLE14=Preacher Boy - Please Call Me Baby
EXTD=
EXTT0=
EXTT1=
EXTT2=
EXTT3=
EXTT4=
EXTT5=
EXTT6=
EXTT7=
EXTT8=
EXTT9=
EXTT10=
EXTT11=
EXTT12=
EXTT13=
EXTT14=
PLAYORDER=
